<svg preserveAspectRatio="none" width="100%" height="100%" overflow="visible" style="display: block;" viewBox="0 0 153 53.4286" fill="none" xmlns="http://www.w3.org/2000/svg">
<g id="Group">
<path id="Vector" d="M104.482 17.0051C103.53 17.0051 102.621 16.6259 101.941 15.9363L101.771 15.764L98.2006 12.144H85.1786L82.7816 9.7135H96.9681C99.6116 9.7135 101.762 7.54154 101.762 4.86106C101.762 3.51651 101.227 2.30125 100.36 1.42212C99.4926 0.542991 98.2941 0 96.9681 0H50.2861V2.43053H53.8816C54.5446 2.43053 55.0801 2.97352 55.0801 3.64579V15.7898C55.0801 16.4621 54.5446 17.0051 53.8816 17.0051H50.2861V19.4356H79.0246V17.0051H70.6436C69.9806 17.0051 69.4451 16.4621 69.4451 15.7898V9.7135H77.5371C78.4891 9.7135 79.4071 10.1013 80.0786 10.7822L88.6041 19.427H107.763V16.9965H104.457L104.482 17.0051ZM69.4621 7.29159V2.43915H83.8356H86.2326C86.2496 2.43915 86.2751 2.43915 86.2921 2.43915C87.5841 2.47362 88.6296 3.54237 88.6296 4.86968C88.6296 6.18837 87.5926 7.26573 86.2921 7.30021C86.2751 7.30021 86.2496 7.30021 86.2326 7.30021H83.8356H69.4621V7.29159Z" fill="var(--fill-0, #323232)"/>
<path id="Vector_2" d="M114.997 36.139C113.696 37.4577 112.889 39.2763 112.889 41.2931C112.889 45.3182 116.11 48.5761 120.071 48.5761H119.884C119.944 48.5761 120.012 48.5761 120.071 48.5761H149.405C150.068 48.5761 150.603 48.0331 150.603 47.3608V43.7151H153V53.4286H150.603V52.2133C150.603 51.541 150.068 50.998 149.405 50.998H108.239C102.935 50.998 98.5321 46.6886 98.5151 41.3104C98.5151 38.6127 99.5776 36.1735 101.32 34.4153C103.054 32.657 105.451 31.571 108.095 31.571H149.371C149.371 31.571 149.388 31.571 149.405 31.571C149.422 31.571 149.422 31.571 149.439 31.571C150.085 31.5538 150.603 31.0194 150.603 30.3558V29.1405H153V38.854H145.214L142.095 35.2427C141.415 34.4497 140.429 34.0016 139.392 34.0016H120.08C118.099 34.0016 116.297 34.8203 114.997 36.139Z" fill="var(--fill-0, #323232)"/>
<path id="Vector_3" d="M56.7205 48.5761C55.6835 48.5761 54.6975 48.1193 54.0175 47.335L50.898 43.7236L48.7985 41.2931L44.608 36.4407L42.5085 34.0101L40.409 31.5796L39.032 29.9765C38.573 29.4507 37.9185 29.1491 37.23 29.1491H11.9765V31.5796H23.6555L24.4035 32.4501L25.7465 34.0101H17.3655L15.266 36.4407L11.0755 41.2931L8.976 43.7236L5.8565 47.335C5.1765 48.1279 4.1905 48.5761 3.1535 48.5761H0V51.0066H12.8775V48.5761H10.2C9.3755 48.5761 8.9335 47.5935 9.4775 46.9643L12.274 43.715H34.1275L36.924 46.9643C37.468 47.5935 37.026 48.5761 36.2015 48.5761H33.524V51.0066H59.874V48.5761H56.712H56.7205ZM14.3735 41.2931L18.564 36.4407H27.846L32.0365 41.2931H14.3735Z" fill="var(--fill-0, #323232)"/>
</g>
</svg>
